<mxfile host="app.diagrams.net" modified="2021-10-13T06:54:02.752Z" agent="5.0 (Windows NT 10.0; Win64; x64) AppleWebKit/537.36 (KHTML, like Gecko) Chrome/94.0.4606.81 Safari/537.36" etag="-dyXr013It4rukr5MvsC" version="15.5.1" type="github">
  <diagram id="C5RBs43oDa-KdzZeNtuy" name="Page-1">
    <mxGraphModel dx="1038" dy="547" grid="1" gridSize="10" guides="1" tooltips="1" connect="1" arrows="1" fold="1" page="1" pageScale="1" pageWidth="827" pageHeight="1169" math="0" shadow="0">
      <root>
        <mxCell id="WIyWlLk6GJQsqaUBKTNV-0" />
        <mxCell id="WIyWlLk6GJQsqaUBKTNV-1" parent="WIyWlLk6GJQsqaUBKTNV-0" />
        <mxCell id="zi32WvDcoemRDKbtRc52-2" style="edgeStyle=orthogonalEdgeStyle;rounded=0;orthogonalLoop=1;jettySize=auto;html=1;" edge="1" parent="WIyWlLk6GJQsqaUBKTNV-1" source="WIyWlLk6GJQsqaUBKTNV-3" target="zi32WvDcoemRDKbtRc52-0">
          <mxGeometry relative="1" as="geometry" />
        </mxCell>
        <mxCell id="WIyWlLk6GJQsqaUBKTNV-3" value="chanrecv start" style="rounded=1;whiteSpace=wrap;html=1;fontSize=12;glass=0;strokeWidth=1;shadow=0;" parent="WIyWlLk6GJQsqaUBKTNV-1" vertex="1">
          <mxGeometry x="180" y="100" width="120" height="40" as="geometry" />
        </mxCell>
        <mxCell id="zi32WvDcoemRDKbtRc52-6" value="Y" style="edgeStyle=orthogonalEdgeStyle;rounded=0;orthogonalLoop=1;jettySize=auto;html=1;" edge="1" parent="WIyWlLk6GJQsqaUBKTNV-1" source="zi32WvDcoemRDKbtRc52-0" target="zi32WvDcoemRDKbtRc52-5">
          <mxGeometry relative="1" as="geometry" />
        </mxCell>
        <mxCell id="zi32WvDcoemRDKbtRc52-11" value="N" style="edgeStyle=orthogonalEdgeStyle;rounded=0;orthogonalLoop=1;jettySize=auto;html=1;" edge="1" parent="WIyWlLk6GJQsqaUBKTNV-1" source="zi32WvDcoemRDKbtRc52-0" target="zi32WvDcoemRDKbtRc52-10">
          <mxGeometry relative="1" as="geometry" />
        </mxCell>
        <mxCell id="zi32WvDcoemRDKbtRc52-0" value="channel is nil?" style="rhombus;whiteSpace=wrap;html=1;shadow=0;fontFamily=Helvetica;fontSize=12;align=center;strokeWidth=1;spacing=6;spacingTop=-4;" vertex="1" parent="WIyWlLk6GJQsqaUBKTNV-1">
          <mxGeometry x="190" y="190" width="100" height="80" as="geometry" />
        </mxCell>
        <mxCell id="zi32WvDcoemRDKbtRc52-3" value="gopark" style="rounded=1;whiteSpace=wrap;html=1;fontSize=12;glass=0;strokeWidth=1;shadow=0;" vertex="1" parent="WIyWlLk6GJQsqaUBKTNV-1">
          <mxGeometry x="354" y="310" width="120" height="40" as="geometry" />
        </mxCell>
        <mxCell id="zi32WvDcoemRDKbtRc52-7" value="N" style="edgeStyle=orthogonalEdgeStyle;rounded=0;orthogonalLoop=1;jettySize=auto;html=1;" edge="1" parent="WIyWlLk6GJQsqaUBKTNV-1" source="zi32WvDcoemRDKbtRc52-5" target="zi32WvDcoemRDKbtRc52-3">
          <mxGeometry relative="1" as="geometry" />
        </mxCell>
        <mxCell id="zi32WvDcoemRDKbtRc52-9" value="Y" style="edgeStyle=orthogonalEdgeStyle;rounded=0;orthogonalLoop=1;jettySize=auto;html=1;entryX=0;entryY=0.5;entryDx=0;entryDy=0;" edge="1" parent="WIyWlLk6GJQsqaUBKTNV-1" source="zi32WvDcoemRDKbtRc52-5" target="zi32WvDcoemRDKbtRc52-8">
          <mxGeometry relative="1" as="geometry" />
        </mxCell>
        <mxCell id="zi32WvDcoemRDKbtRc52-5" value="block?" style="rhombus;whiteSpace=wrap;html=1;shadow=0;fontFamily=Helvetica;fontSize=12;align=center;strokeWidth=1;spacing=6;spacingTop=-4;" vertex="1" parent="WIyWlLk6GJQsqaUBKTNV-1">
          <mxGeometry x="364" y="190" width="100" height="80" as="geometry" />
        </mxCell>
        <mxCell id="zi32WvDcoemRDKbtRc52-8" value="return false,false" style="rounded=1;whiteSpace=wrap;html=1;fontSize=12;glass=0;strokeWidth=1;shadow=0;fillColor=#d5e8d4;strokeColor=#82b366;" vertex="1" parent="WIyWlLk6GJQsqaUBKTNV-1">
          <mxGeometry x="570" y="210" width="120" height="40" as="geometry" />
        </mxCell>
        <mxCell id="zi32WvDcoemRDKbtRc52-13" value="Y" style="edgeStyle=orthogonalEdgeStyle;rounded=0;orthogonalLoop=1;jettySize=auto;html=1;" edge="1" parent="WIyWlLk6GJQsqaUBKTNV-1" source="zi32WvDcoemRDKbtRc52-10" target="zi32WvDcoemRDKbtRc52-12">
          <mxGeometry relative="1" as="geometry" />
        </mxCell>
        <mxCell id="zi32WvDcoemRDKbtRc52-28" style="edgeStyle=orthogonalEdgeStyle;rounded=0;orthogonalLoop=1;jettySize=auto;html=1;" edge="1" parent="WIyWlLk6GJQsqaUBKTNV-1" source="zi32WvDcoemRDKbtRc52-10" target="zi32WvDcoemRDKbtRc52-27">
          <mxGeometry relative="1" as="geometry" />
        </mxCell>
        <mxCell id="zi32WvDcoemRDKbtRc52-10" value="!block &amp;amp;&amp;amp; empty?" style="rhombus;whiteSpace=wrap;html=1;shadow=0;fontFamily=Helvetica;fontSize=12;align=center;strokeWidth=1;spacing=6;spacingTop=-4;" vertex="1" parent="WIyWlLk6GJQsqaUBKTNV-1">
          <mxGeometry x="190" y="390" width="100" height="80" as="geometry" />
        </mxCell>
        <mxCell id="zi32WvDcoemRDKbtRc52-24" value="c.closed ==0" style="edgeStyle=orthogonalEdgeStyle;rounded=0;orthogonalLoop=1;jettySize=auto;html=1;entryX=0.5;entryY=1;entryDx=0;entryDy=0;" edge="1" parent="WIyWlLk6GJQsqaUBKTNV-1" source="zi32WvDcoemRDKbtRc52-12" target="zi32WvDcoemRDKbtRc52-8">
          <mxGeometry relative="1" as="geometry" />
        </mxCell>
        <mxCell id="zi32WvDcoemRDKbtRc52-26" value="empty(c)" style="edgeStyle=orthogonalEdgeStyle;rounded=0;orthogonalLoop=1;jettySize=auto;html=1;entryX=0;entryY=0.5;entryDx=0;entryDy=0;" edge="1" parent="WIyWlLk6GJQsqaUBKTNV-1" source="zi32WvDcoemRDKbtRc52-12" target="zi32WvDcoemRDKbtRc52-18">
          <mxGeometry relative="1" as="geometry">
            <Array as="points">
              <mxPoint x="414" y="540" />
            </Array>
          </mxGeometry>
        </mxCell>
        <mxCell id="zi32WvDcoemRDKbtRc52-12" value="c.closed ==0 OR empty(c)" style="rhombus;whiteSpace=wrap;html=1;shadow=0;fontFamily=Helvetica;fontSize=12;align=center;strokeWidth=1;spacing=6;spacingTop=-4;" vertex="1" parent="WIyWlLk6GJQsqaUBKTNV-1">
          <mxGeometry x="364" y="390" width="100" height="80" as="geometry" />
        </mxCell>
        <mxCell id="zi32WvDcoemRDKbtRc52-18" value="return true,false" style="rounded=1;whiteSpace=wrap;html=1;fontSize=12;glass=0;strokeWidth=1;shadow=0;fillColor=#d5e8d4;strokeColor=#82b366;" vertex="1" parent="WIyWlLk6GJQsqaUBKTNV-1">
          <mxGeometry x="570" y="520" width="120" height="40" as="geometry" />
        </mxCell>
        <mxCell id="zi32WvDcoemRDKbtRc52-32" style="edgeStyle=orthogonalEdgeStyle;rounded=0;orthogonalLoop=1;jettySize=auto;html=1;entryX=0.5;entryY=0;entryDx=0;entryDy=0;" edge="1" parent="WIyWlLk6GJQsqaUBKTNV-1" source="zi32WvDcoemRDKbtRc52-27" target="zi32WvDcoemRDKbtRc52-29">
          <mxGeometry relative="1" as="geometry" />
        </mxCell>
        <mxCell id="zi32WvDcoemRDKbtRc52-27" value="LOCK" style="rounded=1;whiteSpace=wrap;html=1;fontSize=12;glass=0;strokeWidth=1;shadow=0;" vertex="1" parent="WIyWlLk6GJQsqaUBKTNV-1">
          <mxGeometry x="180" y="520" width="120" height="40" as="geometry" />
        </mxCell>
        <mxCell id="zi32WvDcoemRDKbtRc52-30" style="edgeStyle=orthogonalEdgeStyle;rounded=0;orthogonalLoop=1;jettySize=auto;html=1;entryX=0.433;entryY=1.075;entryDx=0;entryDy=0;entryPerimeter=0;" edge="1" parent="WIyWlLk6GJQsqaUBKTNV-1" source="zi32WvDcoemRDKbtRc52-29" target="zi32WvDcoemRDKbtRc52-18">
          <mxGeometry relative="1" as="geometry" />
        </mxCell>
        <mxCell id="zi32WvDcoemRDKbtRc52-31" value="Y" style="edgeLabel;html=1;align=center;verticalAlign=middle;resizable=0;points=[];" vertex="1" connectable="0" parent="zi32WvDcoemRDKbtRc52-30">
          <mxGeometry x="-0.2686" y="-1" relative="1" as="geometry">
            <mxPoint as="offset" />
          </mxGeometry>
        </mxCell>
        <mxCell id="zi32WvDcoemRDKbtRc52-38" value="N" style="edgeStyle=orthogonalEdgeStyle;rounded=0;orthogonalLoop=1;jettySize=auto;html=1;" edge="1" parent="WIyWlLk6GJQsqaUBKTNV-1" source="zi32WvDcoemRDKbtRc52-29" target="zi32WvDcoemRDKbtRc52-33">
          <mxGeometry relative="1" as="geometry" />
        </mxCell>
        <mxCell id="zi32WvDcoemRDKbtRc52-29" value="c.closed!=0 &amp;amp;&amp;amp; c.qcount==0" style="rhombus;whiteSpace=wrap;html=1;shadow=0;fontFamily=Helvetica;fontSize=12;align=center;strokeWidth=1;spacing=6;spacingTop=-4;" vertex="1" parent="WIyWlLk6GJQsqaUBKTNV-1">
          <mxGeometry x="190" y="610" width="100" height="80" as="geometry" />
        </mxCell>
        <mxCell id="zi32WvDcoemRDKbtRc52-40" value="N" style="edgeStyle=orthogonalEdgeStyle;rounded=0;orthogonalLoop=1;jettySize=auto;html=1;" edge="1" parent="WIyWlLk6GJQsqaUBKTNV-1" source="zi32WvDcoemRDKbtRc52-33" target="zi32WvDcoemRDKbtRc52-34">
          <mxGeometry relative="1" as="geometry" />
        </mxCell>
        <mxCell id="zi32WvDcoemRDKbtRc52-41" value="Y" style="edgeStyle=orthogonalEdgeStyle;rounded=0;orthogonalLoop=1;jettySize=auto;html=1;entryX=0.5;entryY=0;entryDx=0;entryDy=0;" edge="1" parent="WIyWlLk6GJQsqaUBKTNV-1" source="zi32WvDcoemRDKbtRc52-33" target="zi32WvDcoemRDKbtRc52-39">
          <mxGeometry relative="1" as="geometry" />
        </mxCell>
        <mxCell id="zi32WvDcoemRDKbtRc52-33" value="sendq is emtpy" style="rhombus;whiteSpace=wrap;html=1;shadow=0;fontFamily=Helvetica;fontSize=12;align=center;strokeWidth=1;spacing=6;spacingTop=-4;" vertex="1" parent="WIyWlLk6GJQsqaUBKTNV-1">
          <mxGeometry x="190" y="720" width="100" height="80" as="geometry" />
        </mxCell>
        <mxCell id="zi32WvDcoemRDKbtRc52-37" style="edgeStyle=orthogonalEdgeStyle;rounded=0;orthogonalLoop=1;jettySize=auto;html=1;entryX=0;entryY=0.5;entryDx=0;entryDy=0;" edge="1" parent="WIyWlLk6GJQsqaUBKTNV-1" source="zi32WvDcoemRDKbtRc52-34" target="zi32WvDcoemRDKbtRc52-36">
          <mxGeometry relative="1" as="geometry" />
        </mxCell>
        <mxCell id="zi32WvDcoemRDKbtRc52-34" value="recv" style="rounded=1;whiteSpace=wrap;html=1;fontSize=12;glass=0;strokeWidth=1;shadow=0;" vertex="1" parent="WIyWlLk6GJQsqaUBKTNV-1">
          <mxGeometry x="354" y="740" width="120" height="40" as="geometry" />
        </mxCell>
        <mxCell id="zi32WvDcoemRDKbtRc52-36" value="return true,true" style="rounded=1;whiteSpace=wrap;html=1;fontSize=12;glass=0;strokeWidth=1;shadow=0;fillColor=#d5e8d4;strokeColor=#82b366;" vertex="1" parent="WIyWlLk6GJQsqaUBKTNV-1">
          <mxGeometry x="570" y="740" width="120" height="40" as="geometry" />
        </mxCell>
        <mxCell id="zi32WvDcoemRDKbtRc52-43" value="N" style="edgeStyle=orthogonalEdgeStyle;rounded=0;orthogonalLoop=1;jettySize=auto;html=1;" edge="1" parent="WIyWlLk6GJQsqaUBKTNV-1" source="zi32WvDcoemRDKbtRc52-39" target="zi32WvDcoemRDKbtRc52-42">
          <mxGeometry relative="1" as="geometry" />
        </mxCell>
        <mxCell id="zi32WvDcoemRDKbtRc52-46" value="Y" style="edgeStyle=orthogonalEdgeStyle;rounded=0;orthogonalLoop=1;jettySize=auto;html=1;entryX=0.5;entryY=0;entryDx=0;entryDy=0;" edge="1" parent="WIyWlLk6GJQsqaUBKTNV-1" source="zi32WvDcoemRDKbtRc52-39" target="zi32WvDcoemRDKbtRc52-45">
          <mxGeometry relative="1" as="geometry" />
        </mxCell>
        <mxCell id="zi32WvDcoemRDKbtRc52-39" value="c.qcount &amp;gt; 0?" style="rhombus;whiteSpace=wrap;html=1;shadow=0;fontFamily=Helvetica;fontSize=12;align=center;strokeWidth=1;spacing=6;spacingTop=-4;" vertex="1" parent="WIyWlLk6GJQsqaUBKTNV-1">
          <mxGeometry x="190" y="830" width="100" height="80" as="geometry" />
        </mxCell>
        <mxCell id="zi32WvDcoemRDKbtRc52-44" style="edgeStyle=orthogonalEdgeStyle;rounded=0;orthogonalLoop=1;jettySize=auto;html=1;entryX=0.5;entryY=1;entryDx=0;entryDy=0;" edge="1" parent="WIyWlLk6GJQsqaUBKTNV-1" source="zi32WvDcoemRDKbtRc52-42" target="zi32WvDcoemRDKbtRc52-36">
          <mxGeometry relative="1" as="geometry" />
        </mxCell>
        <mxCell id="zi32WvDcoemRDKbtRc52-42" value="copy from chanbuf" style="rounded=1;whiteSpace=wrap;html=1;fontSize=12;glass=0;strokeWidth=1;shadow=0;" vertex="1" parent="WIyWlLk6GJQsqaUBKTNV-1">
          <mxGeometry x="354" y="850" width="120" height="40" as="geometry" />
        </mxCell>
        <mxCell id="zi32WvDcoemRDKbtRc52-50" value="Y" style="edgeStyle=orthogonalEdgeStyle;rounded=0;orthogonalLoop=1;jettySize=auto;html=1;entryX=0;entryY=0.5;entryDx=0;entryDy=0;" edge="1" parent="WIyWlLk6GJQsqaUBKTNV-1" source="zi32WvDcoemRDKbtRc52-45" target="zi32WvDcoemRDKbtRc52-47">
          <mxGeometry relative="1" as="geometry" />
        </mxCell>
        <mxCell id="zi32WvDcoemRDKbtRc52-52" value="N" style="edgeStyle=orthogonalEdgeStyle;rounded=0;orthogonalLoop=1;jettySize=auto;html=1;" edge="1" parent="WIyWlLk6GJQsqaUBKTNV-1" source="zi32WvDcoemRDKbtRc52-45" target="zi32WvDcoemRDKbtRc52-51">
          <mxGeometry relative="1" as="geometry" />
        </mxCell>
        <mxCell id="zi32WvDcoemRDKbtRc52-45" value="no block?" style="rhombus;whiteSpace=wrap;html=1;shadow=0;fontFamily=Helvetica;fontSize=12;align=center;strokeWidth=1;spacing=6;spacingTop=-4;" vertex="1" parent="WIyWlLk6GJQsqaUBKTNV-1">
          <mxGeometry x="190" y="940" width="100" height="80" as="geometry" />
        </mxCell>
        <mxCell id="zi32WvDcoemRDKbtRc52-49" style="edgeStyle=orthogonalEdgeStyle;rounded=0;orthogonalLoop=1;jettySize=auto;html=1;entryX=1;entryY=0.5;entryDx=0;entryDy=0;" edge="1" parent="WIyWlLk6GJQsqaUBKTNV-1" source="zi32WvDcoemRDKbtRc52-47" target="zi32WvDcoemRDKbtRc52-8">
          <mxGeometry relative="1" as="geometry" />
        </mxCell>
        <mxCell id="zi32WvDcoemRDKbtRc52-47" value="UNLOCK" style="rounded=1;whiteSpace=wrap;html=1;fontSize=12;glass=0;strokeWidth=1;shadow=0;" vertex="1" parent="WIyWlLk6GJQsqaUBKTNV-1">
          <mxGeometry x="354" y="960" width="120" height="40" as="geometry" />
        </mxCell>
        <mxCell id="zi32WvDcoemRDKbtRc52-54" style="edgeStyle=orthogonalEdgeStyle;rounded=0;orthogonalLoop=1;jettySize=auto;html=1;" edge="1" parent="WIyWlLk6GJQsqaUBKTNV-1" source="zi32WvDcoemRDKbtRc52-51" target="zi32WvDcoemRDKbtRc52-53">
          <mxGeometry relative="1" as="geometry" />
        </mxCell>
        <mxCell id="zi32WvDcoemRDKbtRc52-51" value="recvq.qnqueue" style="rounded=1;whiteSpace=wrap;html=1;fontSize=12;glass=0;strokeWidth=1;shadow=0;" vertex="1" parent="WIyWlLk6GJQsqaUBKTNV-1">
          <mxGeometry x="180" y="1050" width="120" height="40" as="geometry" />
        </mxCell>
        <mxCell id="zi32WvDcoemRDKbtRc52-56" style="edgeStyle=orthogonalEdgeStyle;rounded=0;orthogonalLoop=1;jettySize=auto;html=1;" edge="1" parent="WIyWlLk6GJQsqaUBKTNV-1" source="zi32WvDcoemRDKbtRc52-53" target="zi32WvDcoemRDKbtRc52-55">
          <mxGeometry relative="1" as="geometry" />
        </mxCell>
        <mxCell id="zi32WvDcoemRDKbtRc52-53" value="gppark" style="rounded=1;whiteSpace=wrap;html=1;fontSize=12;glass=0;strokeWidth=1;shadow=0;" vertex="1" parent="WIyWlLk6GJQsqaUBKTNV-1">
          <mxGeometry x="356" y="1050" width="116" height="40" as="geometry" />
        </mxCell>
        <mxCell id="zi32WvDcoemRDKbtRc52-57" style="edgeStyle=orthogonalEdgeStyle;rounded=0;orthogonalLoop=1;jettySize=auto;html=1;" edge="1" parent="WIyWlLk6GJQsqaUBKTNV-1" source="zi32WvDcoemRDKbtRc52-55" target="zi32WvDcoemRDKbtRc52-36">
          <mxGeometry relative="1" as="geometry" />
        </mxCell>
        <mxCell id="zi32WvDcoemRDKbtRc52-55" value="等待唤醒" style="rounded=1;whiteSpace=wrap;html=1;fontSize=12;glass=0;strokeWidth=1;shadow=0;fillColor=#fff2cc;strokeColor=#d6b656;" vertex="1" parent="WIyWlLk6GJQsqaUBKTNV-1">
          <mxGeometry x="570" y="1050" width="120" height="40" as="geometry" />
        </mxCell>
      </root>
    </mxGraphModel>
  </diagram>
</mxfile>
